<svg width="377" height="660" viewBox="0 0 377 660" fill="none" xmlns="http://www.w3.org/2000/svg">
<path fill-rule="evenodd" clip-rule="evenodd" d="M6.5 10.6607V46.0832H26.5V84.1892H6.5V97.0701H26.5V138.396H6.5V155.034H26.5V194.214H6.5V211.925H26.5V248.958H6.5V260.765H26.5V295.114H6.5V310.142H26.5V347.175H6.5V361.129H26.5V398.698H6.5V414.799H26.5V453.442H6.5V467.396H26.5V504.429H6.5V518.92H26.5V555.953H6.5V568.297H26.5V604.793H6.5V653.096H13.5V616.064H45V653.096H56V616.064H87.5V653.096H101.5V616.064H135.5V653.096H151.5V616.064H185V653.096H196.5V616.064H231V653.096H248V616.064H287.5V653.096H303.5V616.064H343V653.096H369V629.481H353.5V594.059H369V580.641H353.5V545.219H369V531.801H353.5V493.158H369V481.351H353.5V444.318H369V427.144H353.5V388.501H369V372.936H353.5V335.904H369V321.949H353.5V285.99H369V273.646H353.5V237.15H369V224.806H353.5V182.943H369V167.915H353.5V127.126H369V109.951H353.5V72.9184H369V60.0375H353.5V34.8124H369V10.6607H356.5V27.8352H327.5V10.6607H315.5V27.8352H285.5V10.6607H272.5V27.8352H239.5V10.6607H229.5V27.8352H197.5V10.6607H185V27.8352H152V10.6607H135V27.8352H102.5V10.6607H87.5V27.8352H58V10.6607H44.5V27.8352H15.5V10.6607H6.5ZM7.5 45.0098V11.7341H14.5V28.9086H30H45.5V11.7341H57V28.9086H88.5V11.7341H101.5V28.9086H136V11.7341H151V28.9086H186V11.7341H196.5V28.9086H230.5V11.7341H238.5V28.9086H273.5V11.7341H284.5V28.9086H316.5V11.7341H326.5V28.9086H357.5V11.7341H368V33.739H352.5V61.1109H368V71.845H352.5V111.024H368V126.052H352.5V168.989H368V181.869H352.5V225.879H368V236.077H352.5V274.719H368V284.917H352.5V323.023H368V334.83H352.5V374.01H368V387.427H352.5V428.217H368V443.245H352.5V482.424H368V492.085H352.5V532.874H368V544.145H352.5V581.714H368V592.985H352.5V630.555H368V652.023H344V614.99H302.5V652.023H288.5V614.99H247V652.023H232V614.99H195.5V652.023H186V614.99H150.5V652.023H136.5V614.99H100.5V652.023H88.5V614.99H55V652.023H46V614.99H12.5V652.023H7.5V605.866H27.5V567.223H7.5V557.026H27.5V517.847H7.5V505.502H27.5V466.323H7.5V454.515H27.5V413.726H7.5V399.772H27.5V360.055H7.5V348.248H27.5V309.069H7.5V296.188H27.5V259.692H7.5V250.031H27.5V210.852H7.5V195.287H27.5V153.961H7.5V139.47H27.5V95.9967H7.5V85.2626H27.5V45.0098H7.5Z" fill="black"/>
<path fill-rule="evenodd" clip-rule="evenodd" d="M1 1V52.3998H19.5364V74.812H1V101.384H19.5364V129.835H1V158.421H19.5364V185.53H1V216.128H19.5364V239.882H1V265.112H19.5364V287.525H1V314.097H19.5364V339.193H1V364.423H19.5364V390.861H1V418.776H19.5364V445.885H1V471.786H19.5364V496.211H1V523.454H19.5364V547.88H1V572.439H19.5364V595.522H1V659H20.5364V620.081H39.7085V659H62.516V620.081H81.688V659H107.767V620.081H129.665V659H156.834V620.081H180.913V659H202.085V620.081H225.073V659H254.423V620.081H281.773V659H311.122V620.081H338.472V659H376V619.008H358.009V596.595H376V571.365H358.009V548.953H376V522.381H358.009V497.285H376V470.713H358.009V446.958H376V417.702H358.009V391.935H376V363.35H358.009V340.266H376V313.023H358.009V288.598H376V264.039H358.009V240.956H376V215.055H358.009V186.603H376V157.347H358.009V130.909H376V100.311H358.009V75.8854H376V51.3263H358.009V36.9663H376V1H349.921V21.8016H331.84V1H310.122V21.8016H289.86V1H268.143V21.8016H244.064V1H225.073V21.8016H202.085V1H180.913V21.8016H156.834V1H129.665V21.8016H107.767V1H81.688V21.8016H62.516V1H39.7085V21.8016H20.5364V1H1ZM2 51.3263V2.07341H19.5364V22.875H40.7085V2.07341H61.516V22.875H82.688V2.07341H106.767V22.875H130.665V2.07341H155.834V22.875H181.913V2.07341H201.085V22.875H226.073V2.07341H243.064V22.875H269.143V2.07341H288.86V22.875H311.122V2.07341H330.84V22.875H350.921V2.07341H375V35.8929H357.009V52.3998H375V74.812H357.009V101.384H375V129.835H357.009V158.421H375V185.53H357.009V216.128H375V239.882H357.009V265.112H375V287.525H357.009V314.097H375V339.193H357.009V364.423H375V390.861H357.009V418.776H375V445.885H357.009V471.786H375V496.211H357.009V523.454H375V547.88H357.009V572.439H375V595.522H357.009V620.081H375V657.927H339.472V619.008H310.122V657.927H282.773V619.008H253.423V657.927H226.073V619.008H201.085V657.927H181.913V619.008H155.834V657.927H130.665V619.008H106.767V657.927H82.688V619.008H61.516V657.927H40.7085V619.008H19.5364V657.927H2V596.595H20.5364V571.365H2V548.953H20.5364V522.381H2V497.285H20.5364V470.713H2V446.958H20.5364V417.702H2V391.935H20.5364V363.35H2V340.266H20.5364V313.023H2V288.598H20.5364V264.039H2V240.956H20.5364V215.055H2V186.603H20.5364V157.347H2V130.909H20.5364V100.311H2V75.8854H20.5364V51.3263H2Z" fill="black"/>
<path fill-rule="evenodd" clip-rule="evenodd" d="M2 2.07341V51.3263H20.5364V75.8854H2V100.311H20.5364V130.909H2V157.347H20.5364V186.603H2V215.055H20.5364V240.956H2V264.039H20.5364V288.598H2V313.023H20.5364V340.266H2V363.35H20.5364V391.935H2V417.702H20.5364V446.958H2V470.713H20.5364V497.285H2V522.381H20.5364V548.953H2V571.365H20.5364V596.595H2V657.927H19.5364V619.008H40.7085V657.927H61.516V619.008H82.688V657.927H106.767V619.008H130.665V657.927H155.834V619.008H181.913V657.927H201.085V619.008H226.073V657.927H253.423V619.008H282.773V657.927H310.122V619.008H339.472V657.927H375V620.081H357.009V595.522H375V572.439H357.009V547.88H375V523.454H357.009V496.211H375V471.786H357.009V445.885H375V418.776H357.009V390.861H375V364.423H357.009V339.193H375V314.097H357.009V287.525H375V265.112H357.009V239.882H375V216.128H357.009V185.53H375V158.421H357.009V129.835H375V101.384H357.009V74.812H375V52.3998H357.009V35.8929H375V2.07341H350.921V22.875H330.84V2.07341H311.122V22.875H288.86V2.07341H269.143V22.875H243.064V2.07341H226.073V22.875H201.085V2.07341H181.913V22.875H155.834V2.07341H130.665V22.875H106.767V2.07341H82.688V22.875H61.516V2.07341H40.7085V22.875H19.5364V2.07341H2ZM26.5 46.0832V84.1892H6.5V97.0701H26.5V138.396H6.5V155.034H26.5V194.214H6.5V211.925H26.5V248.958H6.5V260.765H26.5V295.114H6.5V310.142H26.5V347.175H6.5V361.129H26.5V398.698H6.5V414.799H26.5V453.442H6.5V467.396H26.5V504.429H6.5V518.92H26.5V555.953H6.5V568.297H26.5V604.793H6.5V653.096H13.5V616.064H45V653.096H56V616.064H87.5V653.096H101.5V616.064H135.5V653.096H151.5V616.064H185V653.096H196.5V616.064H231V653.096H248V616.064H287.5V653.096H303.5V616.064H343V653.096H369V629.481H353.5V594.059H369V580.641H353.5V545.219H369V531.801H353.5V493.158H369V481.351H353.5V444.318H369V427.144H353.5V388.501H369V372.936H353.5V335.904H369V321.949H353.5V285.99H369V273.646H353.5V237.15H369V224.806H353.5V182.943H369V167.915H353.5V127.126H369V109.951H353.5V72.9184H369V60.0375H353.5V34.8124H369V10.6607H356.5V27.8352H327.5V10.6607H315.5V27.8352H285.5V10.6607H272.5V27.8352H239.5V10.6607H229.5V27.8352H197.5V10.6607H185V27.8352H152V10.6607H135V27.8352H102.5V10.6607H87.5V27.8352H58V10.6607H44.5V27.8352H15.5V10.6607H6.5V46.0832H26.5Z" fill="black"/>
<path d="M7.5 11.7341V45.0098H27.5V85.2626H7.5V95.9967H27.5V139.47H7.5V153.961H27.5V195.287H7.5V210.852H27.5V250.031H7.5V259.692H27.5V296.188H7.5V309.069H27.5V348.248H7.5V360.055H27.5V399.772H7.5V413.726H27.5V454.515H7.5V466.323H27.5V505.502H7.5V517.847H27.5V557.026H7.5V567.223H27.5V605.866H7.5V652.023H12.5V614.99H46V652.023H55V614.99H88.5V652.023H100.5V614.99H136.5V652.023H150.5V614.99H186V652.023H195.5V614.99H232V652.023H247V614.99H288.5V652.023H302.5V614.99H344V652.023H368V630.555H352.5V592.985H368V581.714H352.5V544.145H368V532.874H352.5V492.085H368V482.424H352.5V443.245H368V428.217H352.5V387.427H368V374.01H352.5V334.83H368V323.023H352.5V284.917H368V274.719H352.5V236.077H368V225.879H352.5V181.869H368V168.989H352.5V126.052H368V111.024H352.5V71.845H368V61.1109H352.5V33.739H368V11.7341H357.5V28.9086H326.5V11.7341H316.5V28.9086H284.5V11.7341H273.5V28.9086H238.5V11.7341H230.5V28.9086H196.5V11.7341H186V28.9086H151V11.7341H136V28.9086H101.5V11.7341H88.5V28.9086H57V11.7341H45.5V28.9086H30H14.5V11.7341H7.5Z" fill="#3B0202"/>
<path fill-rule="evenodd" clip-rule="evenodd" d="M6.5 10.6607V46.0832H26.5V84.1892H6.5V97.0701H26.5V138.396H6.5V155.034H26.5V194.214H6.5V211.925H26.5V248.958H6.5V260.765H26.5V295.114H6.5V310.142H26.5V347.175H6.5V361.129H26.5V398.698H6.5V414.799H26.5V453.442H6.5V467.396H26.5V504.429H6.5V518.92H26.5V555.953H6.5V568.297H26.5V604.793H6.5V653.096H13.5V616.064H45V653.096H56V616.064H87.5V653.096H101.5V616.064H135.5V653.096H151.5V616.064H185V653.096H196.5V616.064H231V653.096H248V616.064H287.5V653.096H303.5V616.064H343V653.096H369V629.481H353.5V594.059H369V580.641H353.5V545.219H369V531.801H353.5V493.158H369V481.351H353.5V444.318H369V427.144H353.5V388.501H369V372.936H353.5V335.904H369V321.949H353.5V285.99H369V273.646H353.5V237.15H369V224.806H353.5V182.943H369V167.915H353.5V127.126H369V109.951H353.5V72.9184H369V60.0375H353.5V34.8124H369V10.6607H356.5V27.8352H327.5V10.6607H315.5V27.8352H285.5V10.6607H272.5V27.8352H239.5V10.6607H229.5V27.8352H197.5V10.6607H185V27.8352H152V10.6607H135V27.8352H102.5V10.6607H87.5V27.8352H58V10.6607H44.5V27.8352H15.5V10.6607H6.5ZM7.5 45.0098V11.7341H14.5V28.9086H30H45.5V11.7341H57V28.9086H88.5V11.7341H101.5V28.9086H136V11.7341H151V28.9086H186V11.7341H196.5V28.9086H230.5V11.7341H238.5V28.9086H273.5V11.7341H284.5V28.9086H316.5V11.7341H326.5V28.9086H357.5V11.7341H368V33.739H352.5V61.1109H368V71.845H352.5V111.024H368V126.052H352.5V168.989H368V181.869H352.5V225.879H368V236.077H352.5V274.719H368V284.917H352.5V323.023H368V334.83H352.5V374.01H368V387.427H352.5V428.217H368V443.245H352.5V482.424H368V492.085H352.5V532.874H368V544.145H352.5V581.714H368V592.985H352.5V630.555H368V652.023H344V614.99H302.5V652.023H288.5V614.99H247V652.023H232V614.99H195.5V652.023H186V614.99H150.5V652.023H136.5V614.99H100.5V652.023H88.5V614.99H55V652.023H46V614.99H12.5V652.023H7.5V605.866H27.5V567.223H7.5V557.026H27.5V517.847H7.5V505.502H27.5V466.323H7.5V454.515H27.5V413.726H7.5V399.772H27.5V360.055H7.5V348.248H27.5V309.069H7.5V296.188H27.5V259.692H7.5V250.031H27.5V210.852H7.5V195.287H27.5V153.961H7.5V139.47H27.5V95.9967H7.5V85.2626H27.5V45.0098H7.5Z" stroke="#1A1A1A"/>
<path fill-rule="evenodd" clip-rule="evenodd" d="M1 1V52.3998H19.5364V74.812H1V101.384H19.5364V129.835H1V158.421H19.5364V185.53H1V216.128H19.5364V239.882H1V265.112H19.5364V287.525H1V314.097H19.5364V339.193H1V364.423H19.5364V390.861H1V418.776H19.5364V445.885H1V471.786H19.5364V496.211H1V523.454H19.5364V547.88H1V572.439H19.5364V595.522H1V659H20.5364V620.081H39.7085V659H62.516V620.081H81.688V659H107.767V620.081H129.665V659H156.834V620.081H180.913V659H202.085V620.081H225.073V659H254.423V620.081H281.773V659H311.122V620.081H338.472V659H376V619.008H358.009V596.595H376V571.365H358.009V548.953H376V522.381H358.009V497.285H376V470.713H358.009V446.958H376V417.702H358.009V391.935H376V363.35H358.009V340.266H376V313.023H358.009V288.598H376V264.039H358.009V240.956H376V215.055H358.009V186.603H376V157.347H358.009V130.909H376V100.311H358.009V75.8854H376V51.3263H358.009V36.9663H376V1H349.921V21.8016H331.84V1H310.122V21.8016H289.86V1H268.143V21.8016H244.064V1H225.073V21.8016H202.085V1H180.913V21.8016H156.834V1H129.665V21.8016H107.767V1H81.688V21.8016H62.516V1H39.7085V21.8016H20.5364V1H1ZM2 51.3263V2.07341H19.5364V22.875H40.7085V2.07341H61.516V22.875H82.688V2.07341H106.767V22.875H130.665V2.07341H155.834V22.875H181.913V2.07341H201.085V22.875H226.073V2.07341H243.064V22.875H269.143V2.07341H288.86V22.875H311.122V2.07341H330.84V22.875H350.921V2.07341H375V35.8929H357.009V52.3998H375V74.812H357.009V101.384H375V129.835H357.009V158.421H375V185.53H357.009V216.128H375V239.882H357.009V265.112H375V287.525H357.009V314.097H375V339.193H357.009V364.423H375V390.861H357.009V418.776H375V445.885H357.009V471.786H375V496.211H357.009V523.454H375V547.88H357.009V572.439H375V595.522H357.009V620.081H375V657.927H339.472V619.008H310.122V657.927H282.773V619.008H253.423V657.927H226.073V619.008H201.085V657.927H181.913V619.008H155.834V657.927H130.665V619.008H106.767V657.927H82.688V619.008H61.516V657.927H40.7085V619.008H19.5364V657.927H2V596.595H20.5364V571.365H2V548.953H20.5364V522.381H2V497.285H20.5364V470.713H2V446.958H20.5364V417.702H2V391.935H20.5364V363.35H2V340.266H20.5364V313.023H2V288.598H20.5364V264.039H2V240.956H20.5364V215.055H2V186.603H20.5364V157.347H2V130.909H20.5364V100.311H2V75.8854H20.5364V51.3263H2Z" stroke="#1A1A1A"/>
<path fill-rule="evenodd" clip-rule="evenodd" d="M2 2.07341V51.3263H20.5364V75.8854H2V100.311H20.5364V130.909H2V157.347H20.5364V186.603H2V215.055H20.5364V240.956H2V264.039H20.5364V288.598H2V313.023H20.5364V340.266H2V363.35H20.5364V391.935H2V417.702H20.5364V446.958H2V470.713H20.5364V497.285H2V522.381H20.5364V548.953H2V571.365H20.5364V596.595H2V657.927H19.5364V619.008H40.7085V657.927H61.516V619.008H82.688V657.927H106.767V619.008H130.665V657.927H155.834V619.008H181.913V657.927H201.085V619.008H226.073V657.927H253.423V619.008H282.773V657.927H310.122V619.008H339.472V657.927H375V620.081H357.009V595.522H375V572.439H357.009V547.88H375V523.454H357.009V496.211H375V471.786H357.009V445.885H375V418.776H357.009V390.861H375V364.423H357.009V339.193H375V314.097H357.009V287.525H375V265.112H357.009V239.882H375V216.128H357.009V185.53H375V158.421H357.009V129.835H375V101.384H357.009V74.812H375V52.3998H357.009V35.8929H375V2.07341H350.921V22.875H330.84V2.07341H311.122V22.875H288.86V2.07341H269.143V22.875H243.064V2.07341H226.073V22.875H201.085V2.07341H181.913V22.875H155.834V2.07341H130.665V22.875H106.767V2.07341H82.688V22.875H61.516V2.07341H40.7085V22.875H19.5364V2.07341H2ZM26.5 46.0832V84.1892H6.5V97.0701H26.5V138.396H6.5V155.034H26.5V194.214H6.5V211.925H26.5V248.958H6.5V260.765H26.5V295.114H6.5V310.142H26.5V347.175H6.5V361.129H26.5V398.698H6.5V414.799H26.5V453.442H6.5V467.396H26.5V504.429H6.5V518.92H26.5V555.953H6.5V568.297H26.5V604.793H6.5V653.096H13.5V616.064H45V653.096H56V616.064H87.5V653.096H101.5V616.064H135.5V653.096H151.5V616.064H185V653.096H196.5V616.064H231V653.096H248V616.064H287.5V653.096H303.5V616.064H343V653.096H369V629.481H353.5V594.059H369V580.641H353.5V545.219H369V531.801H353.5V493.158H369V481.351H353.5V444.318H369V427.144H353.5V388.501H369V372.936H353.5V335.904H369V321.949H353.5V285.99H369V273.646H353.5V237.15H369V224.806H353.5V182.943H369V167.915H353.5V127.126H369V109.951H353.5V72.9184H369V60.0375H353.5V34.8124H369V10.6607H356.5V27.8352H327.5V10.6607H315.5V27.8352H285.5V10.6607H272.5V27.8352H239.5V10.6607H229.5V27.8352H197.5V10.6607H185V27.8352H152V10.6607H135V27.8352H102.5V10.6607H87.5V27.8352H58V10.6607H44.5V27.8352H15.5V10.6607H6.5V46.0832H26.5Z" stroke="#1A1A1A"/>
<path d="M7.5 11.7341V45.0098H27.5V85.2626H7.5V95.9967H27.5V139.47H7.5V153.961H27.5V195.287H7.5V210.852H27.5V250.031H7.5V259.692H27.5V296.188H7.5V309.069H27.5V348.248H7.5V360.055H27.5V399.772H7.5V413.726H27.5V454.515H7.5V466.323H27.5V505.502H7.5V517.847H27.5V557.026H7.5V567.223H27.5V605.866H7.5V652.023H12.5V614.99H46V652.023H55V614.99H88.5V652.023H100.5V614.99H136.5V652.023H150.5V614.99H186V652.023H195.5V614.99H232V652.023H247V614.99H288.5V652.023H302.5V614.99H344V652.023H368V630.555H352.5V592.985H368V581.714H352.5V544.145H368V532.874H352.5V492.085H368V482.424H352.5V443.245H368V428.217H352.5V387.427H368V374.01H352.5V334.83H368V323.023H352.5V284.917H368V274.719H352.5V236.077H368V225.879H352.5V181.869H368V168.989H352.5V126.052H368V111.024H352.5V71.845H368V61.1109H352.5V33.739H368V11.7341H357.5V28.9086H326.5V11.7341H316.5V28.9086H284.5V11.7341H273.5V28.9086H238.5V11.7341H230.5V28.9086H196.5V11.7341H186V28.9086H151V11.7341H136V28.9086H101.5V11.7341H88.5V28.9086H57V11.7341H45.5V28.9086H30H14.5V11.7341H7.5Z" stroke="#1A1A1A"/>
</svg>
